<mxfile host="app.diagrams.net" agent="Mozilla/5.0 (Windows NT 10.0; Win64; x64; rv:143.0) Gecko/20100101 Firefox/143.0" version="28.2.3">
  <diagram name="Page-1" id="tQ_6-MubUDXUoROmKXfL">
    <mxGraphModel dx="1055" dy="617" grid="1" gridSize="10" guides="1" tooltips="1" connect="1" arrows="1" fold="1" page="1" pageScale="1" pageWidth="850" pageHeight="1100" math="0" shadow="0">
      <root>
        <mxCell id="0" />
        <mxCell id="1" parent="0" />
        <mxCell id="yPl7IkhM5WotAJv35KrF-1" value="Start" style="ellipse;whiteSpace=wrap;html=1;" vertex="1" parent="1">
          <mxGeometry x="353" y="50" width="145" height="90" as="geometry" />
        </mxCell>
        <mxCell id="yPl7IkhM5WotAJv35KrF-2" value="&lt;div&gt;Input Number&lt;/div&gt;" style="shape=parallelogram;perimeter=parallelogramPerimeter;whiteSpace=wrap;html=1;fixedSize=1;" vertex="1" parent="1">
          <mxGeometry x="348" y="180" width="155" height="70" as="geometry" />
        </mxCell>
        <mxCell id="yPl7IkhM5WotAJv35KrF-11" style="edgeStyle=orthogonalEdgeStyle;rounded=0;orthogonalLoop=1;jettySize=auto;html=1;entryX=0.5;entryY=0.083;entryDx=0;entryDy=0;entryPerimeter=0;" edge="1" parent="1" target="yPl7IkhM5WotAJv35KrF-7">
          <mxGeometry relative="1" as="geometry">
            <mxPoint x="620" y="390" as="targetPoint" />
            <mxPoint x="495" y="345" as="sourcePoint" />
            <Array as="points">
              <mxPoint x="495" y="346" />
              <mxPoint x="620" y="346" />
            </Array>
          </mxGeometry>
        </mxCell>
        <mxCell id="yPl7IkhM5WotAJv35KrF-5" value="" style="endArrow=classic;html=1;rounded=0;entryX=0.5;entryY=0;entryDx=0;entryDy=0;exitX=0.5;exitY=1;exitDx=0;exitDy=0;" edge="1" parent="1" source="yPl7IkhM5WotAJv35KrF-1" target="yPl7IkhM5WotAJv35KrF-2">
          <mxGeometry width="50" height="50" relative="1" as="geometry">
            <mxPoint x="425" y="150" as="sourcePoint" />
            <mxPoint x="475" y="100" as="targetPoint" />
          </mxGeometry>
        </mxCell>
        <mxCell id="yPl7IkhM5WotAJv35KrF-6" value="Even" style="shape=parallelogram;perimeter=parallelogramPerimeter;whiteSpace=wrap;html=1;fixedSize=1;" vertex="1" parent="1">
          <mxGeometry x="160" y="400" width="140" height="70" as="geometry" />
        </mxCell>
        <mxCell id="yPl7IkhM5WotAJv35KrF-25" style="edgeStyle=orthogonalEdgeStyle;rounded=0;orthogonalLoop=1;jettySize=auto;html=1;exitX=0;exitY=0.5;exitDx=0;exitDy=0;entryX=1;entryY=0.5;entryDx=0;entryDy=0;" edge="1" parent="1" source="yPl7IkhM5WotAJv35KrF-7" target="yPl7IkhM5WotAJv35KrF-8">
          <mxGeometry relative="1" as="geometry" />
        </mxCell>
        <mxCell id="yPl7IkhM5WotAJv35KrF-7" value="Odd" style="shape=parallelogram;perimeter=parallelogramPerimeter;whiteSpace=wrap;html=1;fixedSize=1;" vertex="1" parent="1">
          <mxGeometry x="560" y="490" width="120" height="60" as="geometry" />
        </mxCell>
        <mxCell id="yPl7IkhM5WotAJv35KrF-8" value="Stop" style="ellipse;whiteSpace=wrap;html=1;" vertex="1" parent="1">
          <mxGeometry x="375" y="480" width="120" height="80" as="geometry" />
        </mxCell>
        <mxCell id="yPl7IkhM5WotAJv35KrF-16" style="edgeStyle=orthogonalEdgeStyle;rounded=0;orthogonalLoop=1;jettySize=auto;html=1;exitX=0;exitY=0.5;exitDx=0;exitDy=0;" edge="1" parent="1" source="yPl7IkhM5WotAJv35KrF-3">
          <mxGeometry relative="1" as="geometry">
            <mxPoint x="240" y="400" as="targetPoint" />
            <mxPoint x="350" y="346" as="sourcePoint" />
            <Array as="points">
              <mxPoint x="240" y="345" />
              <mxPoint x="240" y="391" />
            </Array>
          </mxGeometry>
        </mxCell>
        <mxCell id="yPl7IkhM5WotAJv35KrF-18" value="" style="endArrow=classic;html=1;rounded=0;entryX=0.5;entryY=0;entryDx=0;entryDy=0;" edge="1" parent="1" target="yPl7IkhM5WotAJv35KrF-3">
          <mxGeometry width="50" height="50" relative="1" as="geometry">
            <mxPoint x="425" y="250" as="sourcePoint" />
            <mxPoint x="475" y="200" as="targetPoint" />
            <Array as="points" />
          </mxGeometry>
        </mxCell>
        <mxCell id="yPl7IkhM5WotAJv35KrF-21" style="edgeStyle=orthogonalEdgeStyle;rounded=0;orthogonalLoop=1;jettySize=auto;html=1;exitX=0.5;exitY=1;exitDx=0;exitDy=0;entryX=0.004;entryY=0.675;entryDx=0;entryDy=0;entryPerimeter=0;" edge="1" parent="1" source="yPl7IkhM5WotAJv35KrF-6" target="yPl7IkhM5WotAJv35KrF-8">
          <mxGeometry relative="1" as="geometry">
            <mxPoint x="160" y="545" as="targetPoint" />
            <mxPoint x="275" y="490" as="sourcePoint" />
            <Array as="points">
              <mxPoint x="230" y="490" />
              <mxPoint x="160" y="490" />
              <mxPoint x="160" y="536" />
              <mxPoint x="370" y="536" />
              <mxPoint x="370" y="534" />
            </Array>
          </mxGeometry>
        </mxCell>
        <mxCell id="yPl7IkhM5WotAJv35KrF-24" value="" style="endArrow=classic;html=1;rounded=0;" edge="1" parent="1" target="yPl7IkhM5WotAJv35KrF-3">
          <mxGeometry width="50" height="50" relative="1" as="geometry">
            <mxPoint x="400" y="340" as="sourcePoint" />
            <mxPoint x="450" y="290" as="targetPoint" />
          </mxGeometry>
        </mxCell>
        <mxCell id="yPl7IkhM5WotAJv35KrF-3" value="&lt;div&gt;Number / 2 is equal to 0&lt;/div&gt;" style="rhombus;whiteSpace=wrap;html=1;" vertex="1" parent="1">
          <mxGeometry x="355" y="300" width="140" height="110" as="geometry" />
        </mxCell>
      </root>
    </mxGraphModel>
  </diagram>
</mxfile>
